<svg width="268" height="80" viewBox="0 0 268 80" fill="none" xmlns="http://www.w3.org/2000/svg">
<g clip-path="url(#clip0_172_333)">
<path d="M39.1965 0.135857H30.2533C29.7331 0.135857 29.2829 0.489083 29.1587 0.993693C26.4726 11.9049 22.067 29.8962 20.7356 35.4973C20.6502 35.8544 20.1378 35.8428 20.0718 35.4779C18.6317 27.1752 14.8472 13.5235 11.6526 0.985929C11.5245 0.485202 11.0742 0.139738 10.558 0.139738H1.12954C0.368749 0.139738 -0.170795 0.873363 0.0504566 1.59922L14.4241 48.5512C14.6647 49.5061 14.7812 50.1038 14.7812 51.0626V78.8588C14.7812 79.4837 15.2858 79.9883 15.9107 79.9883H24.2911C24.9161 79.9883 25.4207 79.4837 25.4207 78.8588V52.1378C25.4207 50.7016 25.541 49.9874 25.6613 49.3896L40.2756 1.59534C40.4968 0.869481 39.9534 0.135857 39.1965 0.135857Z" fill="black"/>
<path d="M84.8869 21.1936V58.69C84.8869 73.1295 78.8316 80 66.3717 80C53.9117 80 48.788 72.6638 48.788 58.8064V21.0771C48.788 6.87045 55.6584 0.116447 67.0703 0.116447C78.4823 0.116447 84.8869 7.33624 84.8869 21.1936ZM59.5012 20.262V59.9709C59.5012 67.4236 62.1795 70.5677 66.8375 70.5677C71.8447 70.5677 74.2901 67.54 74.2901 59.738V20.262C74.2901 13.1587 71.9612 9.54876 66.8375 9.54876C61.7137 9.54876 59.5012 12.9258 59.5012 20.262Z" fill="black"/>
<path d="M132.945 78.952H126.847C126.292 78.952 125.822 78.5366 125.756 77.9854C125.624 76.8753 125.5 75.3421 125.407 74.0805C125.384 73.7467 124.937 73.6613 124.786 73.9602C122.527 78.4124 118.397 80 113.669 80C102.607 80 98.8802 71.8486 98.8802 59.0393V21.5429C98.8802 8.73362 104.004 0.116447 116.58 0.116447C131.835 0.116447 133.815 11.0626 133.815 20.0291V21.2596C133.815 21.869 133.322 22.3581 132.716 22.3581H124.553C123.944 22.3581 123.455 21.8651 123.455 21.2596V19.6798C123.455 14.9054 122.756 9.54876 116.584 9.54876C111.81 9.54876 109.597 12.8093 109.597 20.0291V59.9709C109.597 66.8413 111.46 70.8006 116.351 70.8006C122.407 70.8006 123.571 65.444 123.571 56.7103V45.9311C123.571 45.3217 123.078 44.8326 122.473 44.8326H117.104C116.495 44.8326 116.006 44.3396 116.006 43.7341V36.9685C116.006 36.359 116.499 35.87 117.104 35.87H132.953C133.562 35.87 134.051 36.3629 134.051 36.9685V77.8535C134.051 78.4629 133.558 78.952 132.953 78.952H132.945Z" fill="black"/>
<path d="M158.517 30.1329V78.983C158.517 79.5459 157.818 80.0039 156.957 80.0039H149.593C148.732 80.0039 148.033 79.5459 148.033 78.983V30.1329C148.033 29.5701 148.732 29.1121 149.593 29.1121H156.957C157.818 29.1121 158.517 29.5701 158.517 30.1329Z" fill="black"/>
<path d="M153.164 14.7424C156.351 14.7424 160.672 12.5881 160.672 10.2086C160.672 8.85007 159.534 7.82921 157.147 4.65405C154.643 1.36633 154.077 0.120331 151.798 0.120331C149.295 0.120331 145.883 2.72877 145.883 6.92091C145.883 10.7754 148.84 14.7424 153.164 14.7424Z" fill="black"/>
<path d="M180.607 56.4774C181.217 56.4774 181.706 56.9704 181.706 57.5759V61.1354C181.706 67.54 183.802 71.1499 188.693 71.1499C193.584 71.1499 195.447 66.8413 195.447 60.3202C195.447 51.7031 193.584 48.6754 185.199 42.1543C176.932 35.6332 172.507 31.441 172.507 20.0291C172.507 9.89811 175.534 0 188.809 0C202.084 0 204.646 9.19942 204.646 18.2824V21.0267C204.646 21.6361 204.153 22.1252 203.548 22.1252H195.385C194.775 22.1252 194.286 21.6322 194.286 21.0267V18.5153C194.286 12.6929 193.238 8.96652 188.697 8.96652C184.155 8.96652 182.991 12.9258 182.991 18.5153C182.991 24.687 184.155 27.4818 191.142 32.6055C202.438 40.9898 205.931 45.8806 205.931 58.8064C205.931 69.7525 202.321 80 188.464 80C174.607 80 171.346 71.2664 171.346 61.0189V57.5798C171.346 56.9704 171.839 56.4813 172.444 56.4813H180.607V56.4774Z" fill="black"/>
<path d="M267.827 8.24842V1.246C267.827 0.621057 267.323 0.116447 266.698 0.116447H252.875C252.324 0.116447 251.854 0.50849 251.761 1.05192C248.427 20.5725 244.84 43.0509 243.427 54.9248C243.381 55.3246 242.803 55.3246 242.756 54.9248C241.324 42.9151 237.675 20.0679 234.31 0.395923C234.282 0.232896 234.143 0.116447 233.98 0.116447C232.221 0.116447 222.77 0.116447 219.486 0.116447C218.861 0.116447 218.36 0.621057 218.36 1.246V8.24842H218.313V76.8093H218.36V78.8666C218.36 79.4915 218.865 79.9961 219.49 79.9961H227.035C227.66 79.9961 228.165 79.4915 228.165 78.8666V50.4571C228.165 46.7695 228.138 43.2644 228.095 39.9224V21.9777C228.095 21.5585 228.708 21.5119 228.771 21.9272C231.014 37.1082 235.121 61.1703 237.597 79.0257C237.675 79.5847 238.152 80 238.715 80H243.094H247.472C248.035 80 248.512 79.5847 248.59 79.0257C251.066 61.1703 255.173 37.1082 257.417 21.9272C257.479 21.5119 258.092 21.5585 258.092 21.9777V39.9224C258.049 43.2683 258.022 46.7734 258.022 50.4571V78.8666C258.022 79.4915 258.527 79.9961 259.152 79.9961H266.698C267.323 79.9961 267.827 79.4915 267.827 78.8666V76.8093H267.874V8.24842H267.827Z" fill="black"/>
</g>
<defs>
<clipPath id="clip0_172_333">
<rect width="267.874" height="80" fill="white"/>
</clipPath>
</defs>
</svg>
